<?xml version="1.0" standalone="no"?>
<!DOCTYPE svg PUBLIC "-//W3C//DTD SVG 20010904//EN"
 "http://www.w3.org/TR/2001/REC-SVG-20010904/DTD/svg10.dtd">
<svg version="1.0" xmlns="http://www.w3.org/2000/svg"
 width="1000.000000pt" height="1000.000000pt" viewBox="0 0 1000.000000 1000.000000"
 preserveAspectRatio="xMidYMid meet">

<g transform="translate(0.000000,1000.000000) scale(0.100000,-0.100000)"
fill="#000000" stroke="none">
<path d="M0 5000 l0 -5000 5000 0 5000 0 0 5000 0 5000 -5000 0 -5000 0 0
-5000z m4910 -1 c-1 -1590 -4 -2889 -9 -2887 -26 11 -358 382 -517 578 l-94
117 0 1061 c0 584 -3 1062 -6 1062 -3 0 -111 -73 -240 -162 l-235 -161 3 -564
c2 -309 2 -563 1 -563 -8 0 -193 306 -293 485 -98 175 -282 545 -365 733 l-67
154 23 16 c13 10 86 60 163 112 76 53 139 100 139 105 1 6 -125 96 -278 201
-253 174 -280 195 -293 230 -70 200 -195 671 -256 970 -33 162 -86 458 -86
483 0 16 1034 529 1267 629 307 131 609 226 851 267 99 17 272 33 284 27 5 -2
8 -1304 8 -2893z m464 2866 c289 -46 655 -169 1041 -348 281 -130 1085 -537
1085 -550 0 -22 -30 -189 -77 -429 l-46 -238 -314 0 c-172 0 -313 3 -313 8 0
4 16 77 35 162 19 85 35 159 35 163 0 11 -614 312 -785 385 -179 76 -314 127
-320 121 -5 -5 -6 -236 -5 -1111 l0 -508 725 0 724 0 -49 -145 c-27 -80 -77
-217 -111 -305 l-62 -160 -613 0 -614 0 0 -1052 0 -1051 -94 -117 c-160 -197
-491 -568 -518 -578 -8 -4 -12 5771 -3 5779 7 7 170 -8 279 -26z m-5122 -5555
c14 -11 28 -29 31 -40 8 -29 -8 -24 -23 8 -12 24 -14 25 -18 7 -11 -49 -55
-61 -74 -20 -9 21 -8 28 7 45 23 25 46 25 77 0z m38 -110 c0 -5 -22 -10 -49
-10 -30 0 -51 -5 -54 -12 -4 -10 -8 -9 -16 2 -19 26 -12 30 54 30 37 0 65 -4
65 -10z m-10 -70 c27 -51 -29 -89 -77 -53 -26 19 -50 63 -34 63 4 0 13 -11 19
-25 12 -27 35 -36 26 -10 -15 38 47 61 66 25z m0 -110 c27 -51 -29 -89 -77
-53 -26 19 -50 63 -34 63 4 0 13 -11 19 -25 12 -27 35 -36 26 -10 -15 38 47
61 66 25z m2 -114 c11 -25 6 -56 -10 -56 -4 0 -8 12 -7 27 0 36 -22 40 -37 6
-7 -15 -13 -29 -14 -31 -1 -1 -13 2 -28 7 -19 8 -26 18 -26 36 0 14 5 25 10
25 6 0 10 -9 10 -19 0 -27 19 -36 27 -14 17 49 56 59 75 19z m3 -107 c3 -10 1
-27 -5 -39 -9 -17 -18 -19 -57 -16 -44 5 -63 17 -63 42 0 19 28 36 49 29 10
-3 22 -2 25 4 9 14 45 1 51 -20z m5 -99 c0 -5 -22 -10 -49 -10 -30 0 -51 -5
-54 -12 -4 -10 -8 -9 -16 2 -19 26 -12 30 54 30 37 0 65 -4 65 -10z m-8 -74
c11 -25 6 -56 -10 -56 -4 0 -8 12 -7 27 0 32 -24 43 -32 14 -6 -24 -23 -28
-23 -6 0 8 -7 15 -15 15 -10 0 -15 -10 -15 -27 0 -20 -3 -24 -11 -16 -7 7 -9
23 -5 38 6 22 11 26 32 22 13 -2 27 0 30 4 11 18 45 8 56 -15z m0 -100 c11
-25 6 -56 -10 -56 -4 0 -8 12 -7 27 0 32 -24 43 -32 14 -6 -24 -23 -28 -23 -6
0 8 -7 15 -15 15 -10 0 -15 -10 -15 -27 0 -20 -3 -24 -11 -16 -7 7 -9 23 -5
38 6 22 11 26 32 22 13 -2 27 0 30 4 11 18 45 8 56 -15z m-69 -107 c-3 -10 -1
-19 5 -19 16 0 24 18 11 22 -8 3 -7 7 2 15 11 8 19 5 34 -10 17 -17 17 -19 3
-14 -12 4 -18 1 -18 -8 0 -8 8 -15 18 -16 14 0 14 -2 -3 -8 -11 -5 -25 -4 -32
1 -7 5 -16 7 -20 5 -5 -3 -17 1 -28 9 -19 14 -19 14 1 15 17 0 17 1 2 12 -15
10 -15 12 0 23 20 15 32 1 25 -27z m75 -136 c-26 -2 -71 -2 -100 0 -29 2 -8 3
47 3 55 0 79 -1 53 -3z m-17 -111 c-26 -18 -27 -32 -1 -32 11 0 20 -4 20 -10
0 -6 -32 -10 -75 -10 -43 0 -75 4 -75 10 0 6 20 10 45 10 49 0 56 8 25 28 -11
7 -20 17 -20 23 0 7 11 4 26 -6 25 -16 27 -16 48 4 14 14 22 17 25 9 2 -6 -6
-18 -18 -26z m-59 -94 c2 -17 10 -23 28 -23 18 0 26 6 28 23 4 27 22 30 22 3
0 -38 -45 -63 -77 -43 -16 10 -28 62 -15 62 6 0 12 -10 14 -22z m62 -84 c9 -8
16 -22 16 -29 0 -20 -28 -45 -50 -45 -22 0 -50 25 -50 45 0 20 28 45 50 45 10
0 26 -7 34 -16z m-64 -94 c0 -15 58 -12 63 3 2 6 8 9 12 5 17 -16 -5 -38 -39
-38 -19 0 -36 -5 -38 -12 -3 -8 -12 -5 -28 10 -19 18 -21 22 -7 22 9 0 17 5
17 10 0 6 5 10 10 10 6 0 10 -4 10 -10z m72 -84 c11 -25 6 -56 -10 -56 -4 0
-8 12 -7 27 0 37 -21 40 -40 4 -25 -49 -75 -33 -75 23 0 24 18 19 22 -6 5 -33
25 -33 43 1 19 38 51 41 67 7z m-34 -159 c4 -30 22 -27 22 4 0 10 5 19 10 19
13 0 13 -26 0 -51 -13 -23 -53 -25 -74 -3 -19 19 -20 36 -4 52 20 20 43 9 46
-21z m31 -98 c26 -46 10 -59 -69 -59 -40 0 -70 4 -70 10 0 6 11 10 25 10 18 0
25 5 25 19 0 27 28 53 53 49 12 -2 28 -15 36 -29z m-5 -95 c19 -18 20 -28 6
-55 -19 -35 -90 -15 -90 26 0 20 28 45 50 45 10 0 26 -7 34 -16z m13 -120 c3
-8 1 -26 -5 -40 -17 -35 -58 -33 -80 6 -11 19 -25 30 -39 30 -13 0 -23 5 -23
10 0 6 30 10 70 10 55 0 72 -4 77 -16z m-2 -93 c-3 -6 -13 -11 -21 -11 -23 0
-18 -57 6 -63 11 -3 20 -10 20 -15 0 -6 -29 -1 -67 12 -38 13 -68 29 -68 36 0
7 29 23 65 35 67 23 77 24 65 6z"/>
<path d="M4095 7071 c-93 -37 -233 -98 -311 -134 -138 -64 -567 -278 -592
-295 -10 -7 -8 -32 13 -128 56 -262 174 -688 252 -909 l28 -80 403 -3 402 -2
0 810 c0 641 -3 810 -12 810 -7 0 -89 -31 -183 -69z"/>
<path d="M191 2301 c-17 -11 -7 -45 12 -39 13 5 23 48 10 48 -4 0 -14 -4 -22
-9z"/>
<path d="M237 2124 c-15 -15 -7 -45 11 -42 9 2 17 12 17 22 0 20 -16 31 -28
20z"/>
<path d="M237 2014 c-15 -15 -7 -45 11 -42 9 2 17 12 17 22 0 20 -16 31 -28
20z"/>
<path d="M233 1794 c-7 -19 11 -39 26 -30 16 10 13 33 -4 40 -9 3 -18 -1 -22
-10z"/>
<path d="M182 1784 c4 -21 22 -23 26 -1 2 10 -3 17 -13 17 -10 0 -15 -6 -13
-16z"/>
<path d="M214 975 c-4 -9 -2 -21 4 -27 16 -16 47 -5 47 17 0 26 -42 34 -51 10z"/>
<path d="M210 656 c0 -8 5 -18 10 -21 6 -3 10 3 10 14 0 12 -4 21 -10 21 -5 0
-10 -6 -10 -14z"/>
<path d="M214 556 c-9 -22 4 -36 32 -36 21 0 25 4 22 23 -4 26 -45 37 -54 13z"/>
<path d="M214 445 c-4 -9 -2 -21 4 -27 16 -16 47 -5 47 17 0 26 -42 34 -51 10z"/>
<path d="M212 323 c2 -12 12 -18 28 -18 16 0 26 6 28 18 3 13 -3 17 -28 17
-25 0 -31 -4 -28 -17z"/>
<path d="M203 222 c-29 -4 -29 -18 -1 -25 25 -7 31 -4 26 15 -2 7 -13 12 -25
10z"/>
</g>
</svg>
